<mxfile host="Electron" modified="2024-02-16T07:44:58.636Z" agent="Mozilla/5.0 (Windows NT 10.0; Win64; x64) AppleWebKit/537.36 (KHTML, like Gecko) draw.io/21.2.8 Chrome/112.0.5615.165 Electron/24.2.0 Safari/537.36" etag="B5-v2hVpr-NBzUm068s1" version="21.2.8" type="device">
  <diagram name="Page-1" id="2XWkQP5S-hDbL94sL5Vg">
    <mxGraphModel dx="2058" dy="1180" grid="1" gridSize="10" guides="1" tooltips="1" connect="1" arrows="1" fold="1" page="1" pageScale="1" pageWidth="3300" pageHeight="4681" background="#999999" math="0" shadow="0">
      <root>
        <mxCell id="0" />
        <mxCell id="1" parent="0" />
        <mxCell id="APLwThIm-aDqV8bCMrbt-1" value="ColorAnimation" style="rounded=0;whiteSpace=wrap;html=1;fontSize=25;fillColor=#dae8fc;strokeColor=#6c8ebf;" parent="1" vertex="1">
          <mxGeometry x="1298" y="140" width="650" height="60" as="geometry" />
        </mxCell>
        <mxCell id="oU81sZwP_sn1_BfFrUT3-1" value="" style="shape=image;verticalLabelPosition=bottom;labelBackgroundColor=default;verticalAlign=top;aspect=fixed;imageAspect=0;image=data:image/png,iVBORw0KGgoAAAANSUhEUgAAAgAAAAEWCAYAAAAQHy/hAAAAAXNSR0IArs4c6QAAAARnQU1BAACxjwv8YQUAAAAJcEhZcwAADsMAAA7DAcdvqGQAAEBySURBVHhe7d0PbFTXvS/6L3+qXGNdihm7x3YwnhCwMU8UsBMK1wIUXmlVCMFqhGVa6QiOQpVYbUDhIkGUiIvCC0g5RITTZ6I6uqBepVjw2mcnIVVKbiLg+YSS2EC5CrFDweBg84oHc6Jju3kHwvutvdee2TOz56/nn72/H2kye5Znz/4zZH6/tfZaa0/4/oKFD5DDZs704saNHv2KiIiIUmGifiYiIiIXYQJARETkQkwAiIiIXIgJABERkQsxASAiInIhJgBEREQuxASAiIjIhZgAEBERuRATACIiIhdiAkBERORCTACIiIhciAkAERGRCzEBICIiciEmAERERC7EBICIiMiFmAAQERG5EBMAIiIiF2ICQERE5EJMAIiIiFyICQAREZELMQEgIiJyISYARERELsQEgIiIyIWYABAREbkQEwAiIiIXYgJARETkQkwAiIiIXIgJABERkQsxASAiInIhJgBEREQuxASAiIjIhSZ8f8HCB3o5J82c6cWNGz36FY3a9yZiwT9ORJ5+6XfnW/zlv3+LYf2SlAko+6dJeHg6MPLn+7h4Jqf/V0nCeD++Qixf/zjqqh9BaYkuwjU0bfwjTutXRG7GFoAcM2XeRFTIj/KS/zrZ/1hQNxGF39NvcCuVuFjnY9kEXZhm35uA6RIclbwfyHdgLuYQFcDlnPzTREzRJQnJ+eMbneVb6tG4xh78iciOCUDOkB/zukn4/uqJ8qMcHODyZk/E7H+chIp5umA0/vYtLv7zPZz1P+7jjv5TLptSOcHfapE3Z0JyAS9Rf3uAO/rkjPz5WwyYi+PHuD6+QjxcbC51NB9Dw8Ym/WDtn8jCBCAn6KbY2Srwy4/y+/fxF1uAvvLnBxiR90yvyFDNN+dMgEeCvrpMcVPOBSRB8mSkReQBev+7+T2Mv+ZxZbwfn+jvxPH2cZe6EaUEE4BcMG+icR1W/SBf+e19dH/+wHYt/gEGztzHRSk/2zpOf6Rj0U3VI19KwOrSyVClW5OhYHm6CZ+IKFHsBJh1gY5Yd96/J8FfFydA9RuYsURdOtAFkjSMXPkWX0rCELtT3wRU/NdJmJ5AJ8Bktjdl2SR8/wfATUlkev8mBRLUy/6LfMbsQNP+yJX7zp8xbxKWrJ6gz0+s/dXnE9bfJ6CwThKsoO2ofQ1dN/A9OInUSa6wbjJmz5bE7Z+/RZ7ejjofqhVH7WtZWJmxWjCnc3FH3n/2W/RKMhhEzsWCJfK+eAK/nM9A0pjc8dkl9r0n+z2kzvItjWgs7sSOnWfBbsRE4dgCkG3+jljyg59w8Fc/spN1vwFdZJAf2dkScCVQlqW0qTw121PJwJJ/lOBgCwaKWnYKBoXGpQ/r/MjzFXmKdRlA/j5Fzq3qUDk7dDuzJ+L7yXaci+BhFeyMQK/IdyqBUvXpCCpbPSmko52cT3mP47mQ/X9Y3u/U7yPztf5RfO8Z/h7ClBRgpl4komCT/qG4+L/p5Zz03e9Ow7/92139ahwqn4hH1PVtqQ11f6HL4qQC6Ry1rlG7/BYX277FV/8qjysPMKFsIqbmTcDUBRPw93+N1hIggVRqn3kjD/D/nn+A/9ClTkazve/Icf7DjAm4lz8B3u/LZ0gN98pxOeaT+jNknTtS9h9DegW/CZjxpOyf7fwMT5Qy2Y/v/F32+YZZFjAB311k7sv0BbJe3gPclH39XO/rnbsT8A/qGOTv37n7LXy39Wri6/PWvgQedybJ+9V+33TalpyTuSooymep7fz2Pj4/KedCyqZK2dTpIWWyTdi3KbX5eT+YYNT2r4eci7/LdqfLdlWHx6DzefuBbf8eYIr67lRryP95H9f85foR8u8pmeNTkvvek/8eUqV8yeN4vOQuPm29guu6jIgC2AKQZVM8eiFR35uIORI81I+yCjKq34Df31Tnrvu4afTwlppkKobNpWh7qplbNTeflfcPyHoBEjzUpYFQ8yTAytOdbtt7P5cAIk8xRwOoJOOf7wc1ow9/fh9XVAuCyPOk4Lxoqhe9cWlDjsP3pbk9e9mI7m0fRPblL7+9h4sO50L1+/DvZ0Y6PEaQiu89g9+DqRDe9T9B3SJZ7B9EhLyGyPWYAIxVhbo5VWrGZpAJJT/OZ80f3JQMm0vV9q4kNuFMcPO/RV7HvAwgAes9Caz6ld2wL/7tx2vE4TPtZZG26U96vjcBhZLsVNRNwoJ/MueBmD1b/UHOezYH6I/6e8/g91C+BK8faUTLkXrsU+P/+6+h7U1e/yeKhAlAlg379IK6VqoX42G1HIxY6zsZUD3mRYKf7SRV24u6fpgJmK6D4Gw9CZD1sILjWB8NYE78JMf0j5MwW11jV9fJ5fzlikz/O0ulPnncNBeJyAETgGzL0R/PnKCb/6NJSetGtsybFOhYd+cB7vz5vjEM9C/yUGPzrSZyitP1s3jBmOznGJpODKK05BE0PrsEXv1nIgrGBCDb/qY6v6mF5K7V50XrQ2A130pwidwJMDGZ3J7V/H/zt9akSPaHvvYsiVNmJgVKtQmoWK2P732zT0T3mQdGX4DhoP4AcchA8pjpf2ejM4DTx4+i6bwschQAUURMALIu0GlMzccecTiVGis+L5AgDBsT4ojZkdaR9y8x368m0In5wxwjiKR8ezHp5n8JKr4I157N8zbGLwOo47N3rPPTQTVO6eoomPnvnYgyhQlADhg+822gJ7Wa83+ZPRjLspr8RY0VX237Ef6brGM0Eet1bMmBkSyocelG+7nUMGN0ujN7qJstEP7tqk5p9h/8FG4vLrr5P1pQsYLTmL4MMH0i5jh938a8ArooIt0ZUn0nT4bcMMroVJiCxCjT3zsRZQwTgJwQPJxq+g/U5CpWhzd1nVjVBuXH/n09i5420GpbZ7XtDoIqWbB+lH/r3AM7wN4CYduufMbs/xIcQFKzvfiYzf+SAETrKf63QP+JsXcZ4AG+Uvc1EEHn3fZ9q3tAxDLwr9/qc6BuGGV9hvmdqE6FqRhAkMnvPXX0zYA4DJAoIiYAOUMlAffwl/e/NSbECZAgd+VbfY8AXeRnX0cXGdQ66oZCwQlDJMNn5L3GDYdsZB9udutlv9RsLzYJNEbtV5KeqLMjBmrAY/EygHHe35dzZz+X6rzrPgED8YyYUHd3lH8bwf9mVKuO+pxU3eEvU987EWUS7wVARONQITbsrcc68F4ARJGwBYCIxq+SaqyvzeZMSkS5iy0ARDQueddvwL41BfqV5RqaNv4Rp/UrIjdjCwARjUs9x49ix4lr6OvXBUQUhC0ARERELsQWACIiIhdiAkBERORCTACyTF3iICIiyjQmAERERC7EBICIiMiFmAAQERG5EBMAIiIiF2ICQERE5EJMAIiIiFyIMwFmmTtnOizG1urN2JQH9PS2Yt2NS7o8EdZn+HD4QhMODOlit6jdhl9urtEvAq42/wzvt+sXhMot+7FqUQkGzx/C22+c0aXjx3g/PieF6/ejYU0J/62nAFsAKPPy5+EJCf6Kt6wKa81FSkBhaalesuvAX3P9B1ElLkd+J4/9WFquy9KlvAGPSXBUCoofRq7eE1AFtF8e2YZK/TpuOX18y7Da+J5jPLYs0++PlxdzqtUx92PwK7OEkscEgDJv6HN8PGIu9vRexrvmIiVg4Pg2/Hrjz/TjRXSoG97034TP/HOO8mLpk1arRQkKZujFdLl+FleNGwH142rnWQwYhblGB7RkvrtcPr7axZilF6MZ7OvVS/EqQ4ER/z/Fl9fNEkoeLwFkGW92lCyXXwIIompbz2HW+UP4dS43AxuXLUrR0fwpZm1+CjjxIt4+7vZ/+2PkuxullDXblzfg57ufQsE4P1+ZwhYAGt/Kl2D73ka0HGnE6+tztRF4lHRt6+pnufyDqGv/qubWfhODutT1xsR3N3qe0hQ12894GAXylHjLATlhC0CWjf8WgECHPyc9vc1Yd+OWfuWkGFVFy7GvrBJe/Rk9vna81fsRUPYy9niitwAs39KIxkX6hYSdtl1HcTSNTYeF5cswp64OsxaVGD9UyuD5d/DBGy2Rm2jLvais+5VxPddaB/0d6Hjv9/ikPfa/DbN2BXTs2oZP4jm2JLcXth051tXPyrGWmNeh1WecfHM/upz2QXdaNGuAsWq9kizsfRU1t6y/y/6ufxqPramxndNDck7PBJ/TCB0j0f8OWnZGOv+2bbUCS+W7q1HX1dX5kGP5RGroYWVhxyf7tyX4fKrv/LPWFnTN0K0e/u9Gjn2v7ZxFJedzo5xP/Sq547NJ+HtP8nsIo7/v0OOJKPL59C1mB8BUYgsA5TAzeWipCAR/xeupxZ6FjXhmii7ICepHS36cdj9nBAv/D6woWPQUGiJ0eiuUH/Wf737V6MltXwclNajZ/Cp+vj72zaLM2lUf7sQR/EezPft2jI5rcqxBgUwtOu6DBAAVuCRQnTN+tHsxqK5dR+q4Vr5EPld+9FUtTzX5HpH9tQUdpWDRc/hxyL46d4yUz4l6fVxfU8ZirNbfnUHOx6w6da6Cy2rqQjqtWfvn8J2v2r0fqx9TAdv23ZRLDTau4C9C+gUkd3ympL73JL+HMOqY1fP5c7GDf9TzuQ2LjQ6AY6Cz6xjBFoAsc2sfgKqZjWgp80RtAVg7V9Xw1ZIPp7r/gOdvm++ryp+P5yrrsMJICmL0AVCXAJ6tRo38bvSdOIYXjsesJyVB15SM3/V+qZ38iwS6Hv2jbKs1hdbUbDW64JqUVwLs01LTUX/rj1Gzj1WbthnV9vQxQo7hvYfRIJ9jfEarfIbxXjnOWqDLoSYZfv3XOl8RaoR6Pwf7JUuQYFlgtCz8Hl3X1WerREsFCFmMdcz6c6LWFq1rympZPq9FnRPbeQorC9qmVbMV8t2efFNq/Pq8qYD7Y3m/8bkRa+h6/Xhr8KHiOT7FdjwJfe96vVR9D4Mx+3yM9nxSotgCQLkpfyWe0cFfBXgr+CuXhy7h+c5mHNYjCaK6fhav7WxCw8amNAV/FeB+ZQZ/9cO0cZv8GFvBX+lB1/H9eHvXIeMHLVCua8VC/YCrMdz2dQZknZYTqppcglmLo9SwdO0q9jXR0W7Pqik/Lj/EpfIZ8mOuPsMfMOQ4HZuRl2GxBP/gWlsP7kS56mPVdI2asgSNX+9UlxWsz5bttL4TVx8C83NiXHfW15SN7846J1/pPgr2Ms1+niu36GClAqAEJPulj4F2+c6bO8wXt24GfYafVTOO9PcY4jq+UXzvqf0e1LmLFvzjO5/G9pI8XxSOCQDlpimFUscQvjM53sM/EOBORquVXD8T9INWuL7O+LFTtaJItbeBc58aP3gFpWVmgRN/p6joP66j3p4VrCQYDDabSU48AtuVmqNZZFOK6Q6XRcxLDSpgRa8xRk96rOF10YeLWcHp6nu2706fU3tZWBArV2Pw5VknCdFE7OBnbSepDoBxHt8ovveUfg+xmu3jPJ/mv/VYyS7FiwkA5aSqPPPqcM/wbeM5ZyVyfdPG6hV99Vx8gTSSSuMac+xroqPenpVoRAkk4QLJ0WchAcTXZ9Y6w+cC8GJ6sXpWx+S8r4WLH9eBINqx6BaLGLVF67zYa9HmOQ0uM98XOM/+fYhy/T1WDd1pO/FL7PgS/95T/D3EmOcg/vMZa3uUCCYARKPhr4EnUiuxflxjdNyL+dn6c2JOIjP67VnBKpFA4m/SRQ1WhcwAp/oEOIsdMJyCdpi4htctw6PGCBH7eXE6V/p9tn2KHVitmm+kcx7ndxJJXMc3mu89Rd9DnJc54j+fsZNdih8TAMpp3ilFesltvP5Z8yLXeOKrBcYn2vaSCFZWk24MBaUh/Q2sGeQiHlN8+xKr9m1wbL3R59ReltS1+lgB1GE7CYjr+OIS4XtP0feQXILsJHZCQoljAkA56bLvCxg/R54I9wrIL8KsCHMLBEn3REC6w1jBmqcjz+VevixkuJvVCa4Gj9YaBWHsHQvNoXMO9I907B/X0W4v8R/fyrpAz/rAlMW2h+4gF3rd2WrmjVyzjW9fzBplEsHJ6ZxGDGJOlzAU1UNet35ECqBWUpGkuI5vFN97qr6HxFqORnE+KSlMACg3+e8XUIk91fVYm2+UGqqK6tG2sA4r9OtolteZQwCV0jWrsCHVN6Dxz8deg1V7t6Gy3FajVROvbDHHy4eOle76zAyAszbvx+pa+zrLsFTNJ2A0kfejI2jkgLOC6iWyXf1CbdP+edqotpdoDdhf++/AyUgduqye9iFzAcRsVrYCdNSx71bttAaP2c57Ye2ywHkSTteU4y0z+zCo86m+c2PRUFjbgNV79fA4ETM5W1SHpbbvQ00ktXRLQ4wbA8V3fEqy33tqv4fYLUcpO5+UEM4DkGWcByDKTID5KyXQ18rPiIORLpwarsSKXJgJ0D6W3EGkmQArt/zO/8MWLtJ4fDvbuGk71ZPaYURC0tuLexy3ydpO9PfrfQ/a1xjzA4h455S33hfKvp65n8HHbZbZtx9pnyKce0WNl+8sxaqoszNan6tfhkjF8VkS/96T/R6iH5Of47/P0Z5PSgZbACh3DX2EdRdacdhnb2T04VRvKxo6j+HQcOwG6dOtnead8kTfiZPpmQb4egve3vgiTp6XGpMuMqhpVo3x8uHBWOl642doUWOb9f4Z+vtx9cQhYz6B2D90Z/D+rnd0C4RpUG3zPedaWbLbc6oBRyTJghFs5Ef+g6jJgp4NsORhGNM9GGI3K8esmWoDx//F+D4CzOMMNHM71U51WdD2I+2TOveH0GHfhjqX8n237Nyv3xut5tuDT3a+GLy+UN/fyV3Rg78S+/gCEv/ek/0e9HqxOLYkjfZ8UjLYApBlbm0BICKi7GILABERkQsxASAiInIhJgBEREQuxASAiIjIhZgAEBERuRATACIiIhdiAkBERORCTACIiIhciAkAERGRCzEBICIiciEmAERERC7EBICIiMiFmAAQERG5EBMAIqI0UvfO/+WR32F1rS4gyhG8HXCWuet2wMXYWr0Zm9COhs6PcFmXEs9LOqjA27CmDyc37keXLotsGVYfeQ6z9KuIzh/Cr984o1/Ew4ule19FTUk/OnY53XufKHvYAkBE45AXc6pLgP6b8OmSqGoXxw7+YrCvVy/FqwwFshvo/xRfMvhTjmECQETjkA68t25iwCyIrn0/fr3xZ/5Hy4l+o/hqc6BMPd4+nmBrXfnDKFDP8e4HUQYxAaAMKsKsPL1INqM4L+VLsH1vI1qONOL19YW6kKwa/dXPEmmuD/CUGtV2DH5lvk7aDDMBSLzlgCj92Acgy8Z9H4CierSVVcIbT4DztWLBF5f0C5v8+dhatgxPeDzw6qKekS583HsaB27f0iXBqmZKUCwDDl9owoEhKXD6DNneDtle6DX3KtnnfTH2uae3GetuhGw7wn6+1XUM76p9sEvFeRHLtzSicZF+gUG07TqKo2lqajavqSNwLbt8GVY/W4dZJSpYiv4OnHxzP7octl9Yuw0/frLGrJUb+nH1RCvOHT8TtWZcKNuYUyfbWFRi1qTF4Pl38MEbLSHryb7ste1LVLKfUfsFWP0BYr3P4kXlll/hsZB9/Ky1Bb7F6pyVGC0J77frPxLlCLYAUNrFFeQcFWPr3EZcXFiHTbagqnjzKrGpYjMOFumCKFQy4PgZ8ggN/mtley0VcQZmm4jbkP3cs/BltM0s1iUByZ+X7DBrxX24IwHe6Nm+W4KkPeCqxbDgrwLz79Cw2R78lRLMWvMcGvY2wLndQgVVCZ6yjRpbYFUKFj2FhiP7sbRcFyiqqT2u4C9i9Quwmu3Pn4sd/Msb8PMjr2KVwz6u2r0Ni1U/BEkk/srgTzmILQBZ5q5RAPNxsLYOK0bi7O0uteSLEozNWvRpqUVbNe5irJ35U+wp88hyF15qlxq2+Qc/swXAg1O+LqzwVALyGS+FfEZV/i1cttfM9fakyo3D3X/wty5UFa3EvopaCUnO27Kvd6r3DA7dCLQqGK0JKqFQn2m1RoRJ8LzYqUsAz1ajRuJM34ljeOF4uq40697seAct7z1sBPTB84fwQavU4I2gLwG7Vr6Ndvu/ZasmrWv756z3CqnZL31Wgrvsd3jt2Oo5r5Zl3eZ/wTn5XPPIZDvrn8ZjaySh6Jd92RnaEqDo7Ub8ewy12/BLdXwnXoxxzd86PiHbOvlmi7/1w2jxUEmPepHsfhClGVsAKHfdPoaGC69gXadqQrc3t9/Cuzea8JJRjSvEo/lGoSMV/FVz/QKHzwgK/qIqz6yLnuqWQG27tHD59kdY163qgpVYFdbiUIytZSr4m+s9bwv+ymU5BnNdD57whLcCjNr1s3htZxMaNjalMfgrulMdHpfAVipBWYLjG7aAjp6Q4C9na4tuRt+1De+rpn5768D1M/jkzXcwKIsFpfY2E9W68Csz+KvAuVHW9Qd/RbZzfD/e3nXICLiORzzKjneFpaXG82Bf9MTcPD6hhgZKgLdf+hhol31s7jCOjx0AKVcxAaCc5g/S+VLrl5r4wbmNaKtuxMXal7FHNQBIYJ01xXiHM19r+LX6USjPCwni+fPwhGrKl9r7odtmUZjbl3FKnryF81Bllow9VlAtKcFgsxmUo1uGR42+CTVYtft3xkQ4YY/dTwU1m5uWYfEaFf0lcYhWa5YEwqmvgUF3vEuuA6AePhir2b68AY+p41NJSpR5AdR+sAMg5SomAJTTVPP7weqXcXHhZuypqJUavQfePCPyx6VnOFJUDnd5xAw3KyrqsdbeqpA/HweNJn6JOyMhycSUQgkZIq8WLZKUqMQk/FGHFcabxzCrN/uJF+PrzBbnuPowiVx/j6DysRr5b7I9+K1x+9H7CRQuftw8H51nIyYp8bYkEGULEwDKXUX1aFFB36hhd+FUbyteutCMBnksaH9FXwJIodvH9GeaHff8AXyhDuC+1si1/HHOCqpXz8UXzKzgFzqO3ukRdJ191MPmvJhuNNKYnRUTFuflA2uYYOTzEWdLAlEWMQGgzMsrxGy9GJlV61Yd8sxr+Or6urqOfznoWn6qmVlF8M+66tzXigaHIYMYHjDfq4bqSVIS9RGrg19c5yUbkg+qodf300/X4JNtQUjZuP34WhKIsokJAGVB9I57QUa+wAeOY/2L8aheSpmieqNfwWHV8TAoeId37vMb+hwfj8izZxm2xntMESVwXiwZmQgo8WA20NdnPBdUL4kwzE+OttYb/revbpodA9c8DfOii4PyZRE/01+DT1JiLR0lKJihF4OoIYy6gyA7AFIOYwJAGXQJJ40I4sGmypUh19lVJz+HXvJ5tdg3c76t81yxMbSuTd08J/6uAHExRwF4MCuh3vq3cKDX7OW/aWEjDqp9DQriasii7G9tPdbqknBJnBdteZ05BFApXbMKG+xj41MlmV717edwVT2XPGWM9a+07Zea3GepGuO/+VUsDr1D3vWzuGrMwluDVXu3yXq2FgRZVnMDqPkHfrw+RsvCojoslQTDYm5T9kO/dhZ/S4evz5wqeNZmtY/GoqGwtgGr96p5AczX7ABIuYzzAGSZu+YBEPkr0bZQjal3EjzO3hrL70iN65dotKesEqe6X8HzIdfmrXUdZ+yLJOq+mSLNQBh1XxVZ73DXsQjzAIgEzotdRmYCjHtcfAi9XiTGPAJqKKF+7acm13EcIWByngnQYp9DIFzwnAPR3+vnOI7fNgdAKDUjYmcpVtlnTSTKQWwBoMwa+gjrLrTi1EhwY7IKrIe7TwcFucs3mtDQ3SV/0wWK8T49rt9engpDn+MtX/RG7kgzEKp9XSDHdVjWDwqRcpxG/wHZ34jBX0ngvNidbu1Eh1kZRd+Jk2mZBjjp3uzqBju7DkmNXu+gpgL4yV0/M+cR0GVBrrfg7Y0v4uT5fnMcvUUCa4cx/0C0SXV68MnOF9Eh69oNqqAs2wwewWDNbRCDY8vHGbwvxxa0HTlONT9Cy879+lJJkh0RiTKELQBZ5roWgJwVzz35i7F27majn0BCLQtERDmILQBEip7Qp2fg8yg99W/hynD0FgIiorGCCQCRjbfspzhYVBw2Y1+VutOfulGQvv/AW6z9E9EYx0sAWcZLALlj7VxreuEoYnXmIyIaI9gCQKS9+8UraOhuNzrihaZkZme85tid+YiIxgi2AGQZWwCIiCgb2AJARETkQkwAiIiIXIgJABERkQsxASAiInIhJgBEREQuxASAiIjIhZgAEBERuRATACIiIhfiREBZxomAiMYgTz5ef3oKzBsl29wdxo5jQ2EzSRLlIrYAEI1Z6hbGL+Ni9cqwmxeNbZOxob4ILb+QR30+vLoUc6aaZfLYPkeXURx4PskZEwAiyl137znUpu/jqzt6MVt8Q3jhN7fR4H98jQ79p5yWq+eTsoIJABERkQsxASAas4owK08vZkr5Emzf24iWI414fX2hLky1e7h5Vy/a3bmPPr1IieD5JGfsBJhl478ToLpOvRmb0I6Gzo+A/Pl4rnIZVuTpG++P+HCq9w94/vYt83WIqpkSbMqAwxeazNvwyvpby5bhCY/Hfy2zx9eKHV9cwmX92lJVtBLPldXKtnQBfPLeM47vHe1+Gpz2baQLb3Udw7sRbiGc8PEV1aOtrBLeeAK/rLdA1lPWzn0Ze+RQTnW/IsdgFDnQ5yCvCy+1yz7rUrvlWxrRuEi/wCDadh3F0ev6ZQot/1ERGuUE9F0YxAvn7pmF/o5336DpN1/jtFnqYDK8c6bg+UWTUTptki6TYNczhIN/+iZiBz3vnHysXzQFNdN0QRzrBDyE7b+YipoEOgEmsz3v4unYtxBo+/0dHPVJgechbKjJx+PeSf4OiX09X4d9xujOJ41XbAGgzMgrxHNzJdgtrAsEVUWWV1RsxsW583VBZCpYXpT1N9mCo6KWgwO62TmupcIe/BVZz1OHltpGbM3XRaGS3M+I+5ZXiT0LX0bbzGJdElm8xxdX8A/xbm+7ERBWlEXpMJg/D0+oz/Zddgz+mXTj7n3juX9QByvFdw/96ln+dsMocCABcXt9AfY98ZAt+CsSIL1Tse8X07HB9rWazE5y+56wB2Ml2jqjkZrtqWSg5empWGcL/opaDk0gkj6fNK4xAaAMqcQKCWw9vna8dOEVLGhXj2a81KuqMUIC88EiczGcB7PK6qWmLL+KUqN+6UKzXt/8jIZes5ZrqZr5U6nFqiWptXfb3nuhFYdHVLkHmxbWY61aDJPEfkqt3Ng3tb3eVjT49+0VNHR3GT/G3rKfRk46Ejm+28dsf2vFKVU20h60Tf9D1/4NQx/hLXUIebV4LsJ5XltWK8mGD4dDzqfd6dZOdBhRQ2qTJ06mpfav9NgDld99fOXUlO0nwV8CohFU736Dto8HbZ30BtF04Rv0SZCdMd18t8W7WIKoEYjvo8O+zu+/RpuxvUlYJ5+7XC2mwOi3J8dQI4nCQklw5Dibfh98nDs6vtHvC0jufNJ4xwSAMqantxnrvvjI1hx+C+/eaJIAZwbXFZ7IrQArPJXG+gs6VXO6vRn+Fi7bm9fzV2KfDsaqWT2oyX7oEg50NuskoBLPRKiVJ7afxdhaVmksneqW7d0IvrxwWQL2OkkCVJB/whO5FSDu4xsFfyuA43mej1XqtI18gQ+ibe/6Wby2U87Fxia8cHxAF6ZLhN7pjj3ZVWDNR41aMJrhv8bRL+1B7x5On/saL0iwfO1LXaR48vG8CqSyLdWs/pp9Hd83OHpsUAflh1C3eLJRPCop2l6N9yGjOb9BjvO01OQD5NzoXDVcYueTxj8mAJQhPnzsc75+ftn3hfkDNKUocvO0rxXrbkS5/m6ZUmg2n/vOmNfUw9zCgV4VkCVgFM5z2F6C+2k1m0st/FCka+u3Lxs1deftafEe32gMfY6PVfLjWRbeGlFUhRXy1DPwuUP/iCz48mupzerr3H73JEBKLfdP4TVc1ay+1KsD6/+Mcg0+KFiK6br5vGcoZFsW2eZ5c3ulEnTtl2aSkqrt9UgyY13Lj0fC55PcgAkA5Y68QszWi6F6hiP2XAtSJZ+hRH3/8IAZIKJsLyr7elbCkVeLltqXcdHxUWcE12jiPb7RsZKf0NYIqxWjC2+lOwlJm0mYYTSr38PNiDXgcN4Cs5bdp6+RO7J6y0+bhJlGQfJStb2o6xPFiQkAkZvcPm1cAvGWLQ/0gcihzn9ElDlMACj7rFr0yACuGAWj550SsUdh8ttzWs9qTVBD7pw64tkfnR+lp3k9oZaMW/hgQFWRK7FKn6Iqz1w5ruid/8aOyXhY9WVIUPCIgRBWs30Ke8tnentETpgAUMbMmqIXggQ60aXi+rP/Or3TdW5D7O0ltJ/RrqtnTCEeTWDbl2+cMfokmEMCi/HjQjX6IEbnP0tGJgJKxjf4s/HFT8K6/902330oz+Sgv/X8VY0MEN78CEPvJmPDooeMpb6eOOYDiHGZIOXbIxoFJgCUIWocfSMOzpxv60A3X088o16k6PqzNdzNGOon2yuyXeuOa3uJ7mfgurqxPbVeUDAuxtqZ9WirjTTscDQu4aR1rJUrsda+3XzZrv3Yg1zCITWiIW8ufjzTbP6PN/laXleNmhJzuXTNKmwoN5dzwemOYX3tfAr21U/Fhjn2XvRqcqCpeP3pAuz7kRlgDb4htFqJw9PTsd2+jppkp75AD9n7Bq1RO91ZQ+pU731b5z35jOX2QJ+y7RGNHmcCzDLXzASogoy69mwE0VDmkD2nXvvmTHkec2he3AlCYJvOnLaXmv2MaKQLh7uOha2b3PHZ5K9E20I1ft9J5Bn91LC/g/7OidHeFyxTMwEmLdJtev3M4XfBveHVxDxW4HXitE44c5Y+h6b9nq9Detonvz1rG0Ez+hEliS0AlCE+fNylJ8ZRTeaaOeGOc1BNntTKO9W22nHKti21D2pa3Yb2aNtLbj8v32gyJxryyTZ0mcGYQli22Rke/FNi6COsk+2eku3YqSmID3efjhLUrdYDkUDnv0xNBJQ04y59etKfoElu1DS7X2NH2FA4xRwOt+PjYXTEvU64nnN3sMOYbMhGTUh0LbTHfmq2RzRabAHIMve0AESuPeeGsbKfqWPeH8A9x0tEwdgCQORG+SvxjLpiEW/nPyIad5gAELmMukui1W/gVG+ahiYSUc5jAkDkBqqzoJ6ZUN0lUQV/1R8i8q2BiWi8YwJA5AbWJEaK6pjYrW54NB4m/iGiZLETYJaN/06ARESUi9gCQERE5EJMAIiIiFyICQAREZELMQEgIiJyISYARERELsQEgIiIyIWYABAREbkQEwAiIiIX4kRAWebWiYDUfPTPlc3FirzAPfTVLWw/7j2NA7eTuC8+UZwK1+9Hw5oSXG3+Gd5v14W5rnwJXt9djVL90q+/Ezt2ng2+BTVRnJgAZJkrE4CielysqNQvQvhasYBT1I5LZuDtw8mN+9GlyyJbhtVHnsMs/Sqi84fw6zfO6Bfx8GLp3ldRU9KPjl3b8Ml1XZzrmABQGvASAGXYfBzUwb+ntxUN7a9ggfW40IyXenl3mvHJiznVJRKwbsKnS6KqXRw7+IvBvl69FK8yFMhuoP9TfDlWgr9y/Sxe2NiEBv/jQ3ToPxEliwkAZVZ+EcrV80g7dty4FHwr2qFbeFceNB7pwHvrJgbMguja9+PXG3/mf7Sc6DeKVbO9vfzt4wnWfcsfRoF6jnc/iMYxJgBEqVS+BNv3NqLlSCNeX1+oC8mq0V/9LJHm+gBPqVFtx+BX5uukzTATgMRbDojGH/YByDI39AGomlmPfWWVgdvRRuJw/b9qpgTTMuDwhSYcGJKC/PnYWrYMT3g8/s9T97XfIesFtSYIs6NhLVbk6QL45L1nHN+7du7L2OPpwkvtp/Ho3J9ik3y+ev+p7iY8f7sYW8PKjNXCLN/SiMZF+gUG0bbrKI6mqanZvKaOwLXs8mVY/WwdZpWoYCn6O3Dyzf3octh+Ye02/PjJGrNWbujH1ROtOHf8TNSacaFsY06dbGNRiVmTFoPn38EHb7SErCf7ste2L1HJfkbtF2D1B4j1PosXlVt+hcdC9vGz1hb4FqejA2AhvLWP4/knp6G0xL9F9J3vwME3uiNen/fWLsH6J6tR4z9FsdcJqMD2Iz9ETQJ9AJLZnnf9BuyTf2P+f8flFdhQV4PHFxX4+yP0nf8wzn2mXMMWAMoA273oR0ElAxcX1hmB2P55ajk4oEvArn4ZLRX24K/Iep46tNQ2Ymu+LgpSiGeqN+tAr3iwomylBP+Qsop6rNWvssmsFffhjvwwq2Tgl7slSNoDrloMC/4qMP8ODZvtwV8pwaw1z6Fhb4OcBScqqErwlG3U2AKrUrDoKTQc2Y+lxrUdTTW1xxX8Rax+AVaz/flzsYN/eQN+fuRVrHLYx1W7t2Gx6ocgicRfUxX8JSBu3ysJ7uZHbMFfkQC56IfYd2QDNtjPi6EQG/Y2yjr2YKxEW2c0UrM9lQy07P4h1tmCv6KWGfzHJrYAZJnrRgHkr0Tbwlp4R9rR0PlRWE08lNkC4MEpXxdWeCqBEamld5229RUoRlX+LVxWrQOatY5ZW/+D1Nb1e1XrQaUkEEZSoGr7x/Cu8QerBUAt+XRrg0oiJPAb7w0vO9X9inMrgLoE8Kz5Q9t34hheOJ6uK826NzveQct7DxsBffD8IXzQKjV4I+hLwK6Vo2y3/9uyatK6tn/Oeq+Qmv3SZyW4y36H146tnvNqWdZt/heck881j0y2s/5pPLZGEop+2ZedoS0Bit5uxL/HULsNv1THd+LFGNf8reMTsq2Tb7b4Wz+MFg+V9KgXye5HGF0LV4v919D23qc42m59aiGWr38cdWseQX9zE16znU+zVq32ZBAdzSflb3odVbt+VgKscZ6voWnjH3Ha+IOT+FsARrM9a92O89ck8XvEOM6mNz/F6euB4/SWD6AnLNGksYAtADQmqODf09uMBZ0StIM6CgYHf5Vg7NPBXwVtf/BXhi7hQGczDo+oF5V4ZmaxUWzX0/sH81KDfO4HA2a91F7212GjKLLrZ/HaTrOndvqCv6I71eFxCWylEpQlOL5hC+gSEoKDvxzxFt2Mvmsb3ldN/fYf7etn8Mmb70iIkHphaXB7TeH6X5nBXwXOjbKuP/grsp3j+/H2rkNGwHU84lF2vCssNeubg33RE2Xz+IQaGigB3n7pY6Bd9rG5wzi+VHUA9K6v0cFfBeE/2oK/MoDTx/+IF3YdCwr+KkF8Xgdj1azuD8bK9W4c3XkMbUZ/x0dQl4o+JCnangr+KqFtkOMMBH+FwX8sYwJAY4OvFetuxDFCYIq+3OA7o4N2qFs40Gs2JHsL56HKWAq4PhK+DXvZleG4BrGlnxVUS0ow2GwG5eiW4VGjb0INVu3+HX55xOGx+ynzM4Msw+I1KvpL4hCt1iwJhFNfA4PueJdcB0A9fDBWs315Ax5Tx6eSlCjzAhihMCUdAAuxtFoH1jej1MCDgqWYoZvPz3dE6BsygKPvXTOWSqtnm/+WRyNV2zv/YZoTWsoGJgA0JvQMxzc/QFWeWYuJ+v5hqbWoZ3nvbKNgDLJ6s594Mb7ObHGOqw+TyPX3CCofU/XkZHvwW+P2o/cTKFz8uHk+Os9GTFLibUmIz3TMMFpg7uJmAjVgb+k047mv747x7OirQfSp55ICzDQKkpeq7UVdn8YsJgBEY5AVVK+eiy+YWcEvdBy90yPoOvuoh815Md240mJ2VkxYnJcPrGGCkc9HnC0JRC7CBIDGJe+UIr3kwLpMMDKAK0bBWJN8UA29vp9+ugafbAtCysbtx9eSkLhpeDiJHvulpdP1kgOr2b5/EDeMgtHL9PZobGACQOPKZd8XZvO+Z1mEoX7F2FqmpyIe+DzmKISEZWQioMSD2UCf0ciLguoliLRXhbXe8L99ddPsGLjmaUS4e4Mc87KIn+mvwScpsZaOEhTM0ItB1BBG3UEwVgfAuL+/bvz5vHouwLpnl5gJpZPy4CGwPeeumc3ti2oiDL0rxIYnHzGW+jqvRO5bYIlxmSDl26NxhQkAjS9DH+EtIyp6sGlhIw4W2Xr6q2GA/qF9XXgrnk6FCVpeFxhrXbpmVYrHc2vJ9KpvP4er6rnkKWOsf6Vtv9TkPkvVGP/Nr2JxrS60XD+Lq0Yv8Rqs2rtN1rOFM1lWcwOo+Qd+vD5Gy8KiOiyVBMNiblP2Q792Fn9Lh6/PnCp41ma1j8aiobC2Aav3qnkBzNexWhIS+f5Ot3aawbWkGvv2/gQbau0JgwT+2p/g9d312LelQpcJOZ+tVuKwewO229dRw/L21vuH5bVG7XR3B1/5e+9XBJIM+Yzl9n1O2fZoPOI8AFnGeQCis8b0qyGAcY0CMNjH8DuxxvXrl8KaB8A+vt8/B0GMMruMzAQY97j4EHq9SIx5BNRQQv3aT02u4zhCwOQ8E6DFPodAuOA5B6K/189xHL9tDoBQakbEzlKsss+aGEHC3195hLv0+Tl9hpqYxwq8TuL7dxMY3x/i/IdoeKNbv1CS3561jfTOaUHZwhYAGodu4UDnK2jobscpY8y/RU0FrO5AGBz8U0nVCjvMyqj8aJ5MffAXSfdmVzfY2XVIavR6BzUVwE/u+pk5j4AuC3K9BW9vfBEnz/dLqLCRwNphzD8QbVKdHnyy80V0yLp2gyooyzaDRzBYcxvE4NjycQbvy7EFbUeOU82P0LJzv75UErslIeHvz7hL3zE0nbgG3QihqWl2P8SOjU6BdQBHdzZhR3NgW6Zo64TrOX4UO9R29WuDmpDos9Ae+6nZHo0/bAHIMte1ABARUU5gCwAREZELMQEgIiJyISYARERELsQEgIiIyIWYABAREbkQEwAiIiIXYgJARETkQkwAiIiIXIgJABERkQsxASAiInIhJgBEREQuxASAiIjIhZgAEBERuRDvBphlvBugW03GhvoCrJt2H22/v4Oj5v1qY/Pk4/Wnp4Tff/7uMHYcGwL/JRFRvNgCQBlUjK3VL+Ni9UpU6ZLxQQXzIrT8Qh71+fDqUsyZapbJY/scXeYqPC9EuYwJAFEq3b3nUAu/j6/u6MXR8g3hhd/cRoP/8TU69J9yWrrPCxEljAkAERGRCzEBoAwqwqw8vZgp5UuwfW8jWo404vX1hbow1e7h5l29aHfnPvr0ojvxvBDlMiYAlF5F9WhT1/1r1aMOK1RZXi1ajNchj7nzjVVCVRWtxEH/Z6hHI9rkvfH0I1heV42aEnO5dM0qbCg3l9Ol7+59vWQngTBGJz+v5yFsr5/uvzbeIsvb50zWf00B1Xkw9Fp8EOt6/XRs8OiiULKPG3403fwc/Xi9fiqWR3q/TbLnhYjShwkApZ036Vq/2WmwpaIWK4I+wyMBs06SiEZszddFWXZDB7j+wXvGs8F3D/3qWf52wyhwNqNmOvY9PRU10ybpEiHLNU8UoOVHD+mC7PIuluRE9nGdd1LQCITSaQ+h8WlJBBY7JyujOS9ElF5MACi9bh/DgvZX9KMVp1TZSDsa/GW2xxeXjFUsVTN/ik1G4PfhVHdz4H0XWnF4RJV7sGlhPdaqxQhOt3aiw4g2Ugs9cRJHr5vLqdZjD3B+9/GVUxN4EAn0ElT7eobR9HurY98gmi7oGrN3avZ7ys+Zin0LVXJyHx0XvsYOWyfEHR9/YzTnly6c6thykPx5IaJ0YwJAuSl/JfaVqYjiw+ELTXj+9i2zXBm6hAOdzToJqMQzM4uNYkfXz+K1nU1o2NiEF44P6MJ0idCr3bEHfEDfhUG88KchnPY3h9/D6XN3sEMnATWPZLMVYDI2LDK33/HxHbx27pugY+n58mu8IEmASmQefzTSJYvkzgsRpRcTAMpNUwrNa9W+MzgwZJSEuIUDvV3GkrdwXvbnFZBA2PCb0Al97uHoMakp/0kFyEju49O/OtWSJbj+1axdY9rkCNftM8DzEB6fJs93h3H8S7MozJffGEMRS70Phe9n0ueFiNKNCQDlpKo8s8d+z/Bt49nR8IBZg5T3zjYKxqlpkzBTL2bcdH3Nf9oU7LN1/gt+TEWN8WYiGkuYABAREbkQEwDKvARq7N4pRXrJgXWZYGQAV4yCccaqfWezt7w1Zr9HNeUHOv85PngvAqIxhQkAZUEhHo0xfO+y7wszmHiWRRjqV4ytZZXGUs/A57hsLDnIyERAozEJM6brxSCBznd9PcEd7xzFukxgDb2L8D7v4qlYp671h/J9g09Vj31vfuT5AYhoTGICQBl0CSeNzmAebKpcibX2wJ5fjLVFtt78Qx/hLeu9Cxtx0P63/PnYWr1ZDxHswls3bCMEQmR6IqBk1DyhxtHbOtCpCXeMOwWqF9+g9ZxzJ0GTNaTuIdSFfEbwBD2B9zX+yP4+STR+NF0P83NyD0fPm7381z09HdvVNoI+dzKWS/Lw+i+mYrkuIaKxgbcDzjLX3Q44fyXaFtaG9xY3dOGl9mN4V78yJwKyAr0Tc4ig8ygB0/ItjWhcpF9gEG27jqZtLoDEqJn3zNsB992dhFKn2rcE7XhuFawm6XEM4KrZ3t7TXt2F7wnnIYVqKGLrtAI0ep23GXEblrvfoO1/fh3/bY2JKOsm/UNx8X/Tyznpu9+dhn/7t/E7a8h4P74w/3ENLXcGMe+7RfB+Z4oulFg10oX/+9pp/Hb433WJ8u84238ap/4+GUVTZsr7dbEE/h7fn/Ds+RN47z90UQTXb03CI3NLUPqf1URA72L/vw7rv2TbRMz/3/Iw9+9/x/9x7C4+/Hoy5hVMxn/+T+Zf1cRA/0MC6ok4AurdmyP4bJKsXyzr6zIjIF/+//C/7nyrC8Sdb/BZyHbU+5pODOI3V77FBM9/wg+LJQ27PIL/ZcyxEKC28X/13Md3pkzG1GkTbdu5j44v/h0H/zSM/ydkHSLKbWwByDLXtQAQEVFOYB8AIiIiF2ICQERE5EJMAIiIiFyICQAREZELMQEgIiJyISYARERELsQEgIiIyIWYABAREbkQEwAiIiIXYgJARETkQkwAiIiIXIgJABERkQsxASAiInIhJgCUZeqe/y/jYm0jtubrIteyzsXLaJs5X5cREaUHEwCilNEBvHolqnRJQvLn4Yk8c9FbVoW15iIRUVpM+P6ChQ/0ck4a7/fLH+/HF5sKmpuxKc+HwxeacGBIF49J+ljQjobOj3BZl8bPOhdAT28r1t24pMvdy1tegaV1NVi3qAA4/yEa3ujWf4nMW7sE65+sRk2JLsAgOk504PjxbkT7Py3T6xFlG1sAiHLGLRzofAUL2l9xffBfvqURLUcasW/3D83gHyfv+g3Yt9kejJUC1Kz5IfbtXQKvLgmV6fWIcgETAKKUKcIs3YQ/bpUvwfa9ZnB+fX2hLky9G60foqlZP04M6tIYZN+eX6OSBVUDP4YdG5vQoB67PkRHvxSXVGPflgrjrUEyvR5RjuAlgCxzzyWAYlQVLce+skp4dZDs8bXjrd6PgLKXsccTcgkgfyXaFtbCOxKpOT36pYOqmRKkyhD4W/58bC1bhic8Hn+trMfXih1fXAr/bKf3jnTh497TOHD7li7RiurRZjumqGR7C2R7pkBzv5Oe3masuxGyrRBVRSvxXFktVvg/wyfHdMb5mMIuTxRj7dyf4pmg89Eu60a/dKFq5o2L9AsJfG27juLodf0yXWp/gpbNj8S8BGDtW58E4xeOD+hSSwW2H/khahz2OdPrEeUKtgBQBpjBp6UiOFB6PbXYs7ARz0zRBWmikoGLC+uwyRbsFLUcHOxkP+dGeG9eJTZVbMbBIl1gE1fwTyl1Pl+W82kP/orss6cOLdFGVOQVYrYkOAfl+9gTeozyfbQk24Ex6yrwAyMxuYbWsGCsdOO40ZJQgBkzzBJTptcjyh1MACjt1s61aro+nOpuNq5xq0fDhVacGpEglLYA6sGssnq0lHkAqcG/dCGw7QXtzWjoDbnOXrTcCPyqth/63pd6fcZbVlTUB/fOv33M9j45HlWmWi38ZbaHv/avBK732x8NejvRVM38qeP5XCDn8/CIKvdg08KQ/fSrlKSrThIHHw7bv4vuLvPPebV4ziHJsZxu7TSbt0XfiZO5U7Mtnw7jMvz5v+K0UWCyJzg9fXeN55JS26WLTK9HlEOYAFB65a/EMxJ/VbBSzfHP25rQLw9dwvOdzTpopccKT6XRnL6g8xjeHbI3qd+S7etFiwTzhguvYJ3De9+90YSXjNhciEezOV+BnM99KqFxOJ+Q83nAfz4r8czMYqM4jEpw2puCLmdclmM3j09iW16E9ZTrZ/HaTvNad3izdxbNKECpPPX13TFfG03wjdhn76vw1SD65Km0dLr5Wsn0ekQ5hAkApdeUQrNW5DuTnSF+PjWczh7Mo/MnBfnFWFu0EgfnNqKtutGYnGePkch4MCvNlyyiink+b+FAr1mb9xbOc2jOl8ShSxIc/cruynDs1ocxo/ZR1OjFhAJwptcjyiImAJRWVXlmbahn+LbxnGmJbld1rDuoJvNZuBl71DV2dZ08z4j8OSGu8zk8YI4/V9f7jQL38Aff9k/RZlyqGETHZ7HnDsj0ekS5gAkAkaWoPtCxbqQLp3pbjb4ADbo/gNVETjlIN7cHDOCocaniKF5r10VhzfYi0+sR5RAmAJQR3ilRepblhPk4WFEpz7pzXOcxPH/jktEX4HJQf4A4ZKDmHfV8WpcJRgZwxShwget3YFTAFz2K5UZBOG/pNOO5v8/WdyHT6xHlECYAlFaXfV+YzdGeCHPb50eYPGfoNowO5hGCaaAnfIqNfIEPQsf6G4rxqF6KLX0dBQPnc1mEoX7F2FqmEhmgZ+DzqGP6k5KhiYAS140/n1fPj6DOcb8qsN6YtOca/mzV0A2ZXo8odzABoPQa+hwf617pe6rrsdYWtKrUJDpqSJp+Hew2rlrrzZ0f6MyWb47VN4b2pUNeLfbNtG1PAqqxn2oSnZibvISTxmUCDzZVrgw6VrNTYZTe9fEa+ghvWdtY2IiD9s9UExj5JxfqwlsJdH6M1/K6wLS3pWtWYUO5uZwL1BBFo9f9mnpJTioCQ/LKKyRpUZPyiJBhe0qm1yPKFZwJMMtcMROgNauffhlEXWsfrsSK0JkAFQm8F41m+XBqaN9bU9RkNg7rCXMmQE9cM+pZrHUcqaFzA8AeqV2f6n4Fz0fqgxftWCUov9Tu3APfEt9+mxMrRW4BcTon1jrO50uJZ9uZmAkweBtROMwMaMzNb9S8HfR3YsfOs4436Mn0ekS5gC0AlH5Sa12nJqnx2XvR+YxOdg2dx3Ao0vAzNS6/uws99nkCjEl61M1ybqV82NrlG02O27P6BLxrL49EH+upkeB9U5MLHe4+HTX4x8+cRKihu122o4sMaipgOadqjL/jEMHRy9mJgLSe40exo1nto/3+AWqu/g+jBuNMr0eUC9gCkGXuuRcAERHlErYAEBERuRATACIiIhdiAkBERORCTACIiIhciAkAERGRCzEBICIiciEmAERERC7EBCDLOAcAERFlAxMAIiIiF2ICQERE5EJMAIiIiFyICQAREZELMQEgIiJyId4NMAeE3mO9r/8uWt/8I07n2K1WiYho/GALQM4pQGnJI2jc/RMs1yVERESpxhaAXFNegQ3P/hDrSgbRtusojrIVgIiI0oAtALnmejc+6RzUL4iIiNKDCUAO6um7q5eIiIjSgwlADvKWTtNLRERE6cEEIGfdxU1e/yciojRhAkBERORCTABy1iNo3LsEy8v1SyIiohTiMMCcVIjlW1ahblEBSnVJ34ljeOH4gH5FREQ0OmwByGFW8CciIko1tgDkotqfoGXzI0D/NTS9+SlOX2fNn4iIUostADnIHAY4iDbjfgAM/kRElHpMAHIWhwESEVH6MAHIWdPwMEcAEBFRmjABICIiciEmADmI9wIgIqJ0YwKQg3gvACIiSjcmALmmvALr1xToF0REROnBeQBywPItjWhcpF9Y+juxY+dZuG0ORCIiygy2AOScQfSd70TTmwz+RESUPmwBICIiciG2ABAREbkQEwAiIiIXYgJARETkQjmfAPD6PxERUeqxBYCIiMiFmAAQERG5EBMAIiIi1wH+f+Llfw1l990wAAAAAElFTkSuQmCC;" vertex="1" parent="1">
          <mxGeometry x="1367" y="280" width="512" height="278" as="geometry" />
        </mxCell>
      </root>
    </mxGraphModel>
  </diagram>
</mxfile>
